<svg width="323" height="94" viewBox="0 0 323 94" fill="none" xmlns="http://www.w3.org/2000/svg">
<path d="M158.012 90.6954L170.152 30.036C172.399 49.7943 171.517 72.5967 182.027 84.3191C185.769 68.7273 187.273 53.4423 185.555 38.6025C190.64 51.7643 197.426 64.614 198.736 78.468C201.206 68.1987 202.967 57.9936 209.356 47.3654C209.103 59.3339 203.625 70.2962 213.59 76.2759C218.411 66.9108 223.273 57.5677 224.098 46.005C231.201 57.3624 230.223 70.9407 232.43 83.6453C235.241 71.15 237.533 36.3075 248.096 25.2313C247.057 48.1769 246.806 66.3453 257.246 75.5782C267.566 68.4781 268.457 54.5678 268.695 41.3674C275.98 52.7043 280.872 65.6201 281.339 81.4532C284.22 68.2428 287.574 55.0323 295.831 41.8227C293.911 58.0322 295.402 70.6377 302.352 77.4711C306.947 67.2725 310.87 57.0738 312.077 46.8734C318.229 62.0712 316.419 76.1731 317.657 90.6954H158.012Z" fill="#F7941D"/>
<path d="M0.0117188 90.6954L12.1521 30.036C14.3991 49.7943 13.5167 72.5967 24.0272 84.3191C27.7695 68.7273 29.2731 53.4423 27.5547 38.6025C32.6397 51.7643 39.4255 64.614 40.7364 78.468C43.2063 68.1987 44.967 57.9936 51.3565 47.3654C51.1026 59.3339 45.6253 70.2962 55.5904 76.2759C60.4108 66.9108 65.2733 57.5677 66.0975 46.005C73.2014 57.3624 72.2235 70.9407 74.4298 83.6453C77.2409 71.15 79.5331 36.3075 90.096 25.2313C89.0573 48.1769 88.8061 66.3453 99.2465 75.5782C109.566 68.4781 110.457 54.5678 110.695 41.3674C117.98 52.7043 122.872 65.6201 123.339 81.4532C126.22 68.2428 129.574 55.0323 137.831 41.8227C135.911 58.0322 137.402 70.6377 144.352 77.4711C148.947 67.2725 152.87 57.0738 154.077 46.8734C160.229 62.0712 158.419 76.1731 159.657 90.6954H0.0117188Z" fill="#F7941D"/>
</svg>
