<svg width="363" height="69" viewBox="0 0 363 69" fill="none" xmlns="http://www.w3.org/2000/svg">
<path d="M0.72 68V0.799995H19.728V68H0.72ZM66.2753 15.104C70.3073 15.104 73.9553 15.936 77.2192 17.6C80.4833 19.2 83.0433 21.696 84.8993 25.088C86.8193 28.48 87.7793 32.864 87.7793 38.24V68H69.5393V41.216C69.5393 37.504 68.7713 34.816 67.2353 33.152C65.7633 31.424 63.6833 30.56 60.9953 30.56C59.0753 30.56 57.3153 31.008 55.7153 31.904C54.1153 32.736 52.8673 34.048 51.9713 35.84C51.0753 37.632 50.6273 39.968 50.6273 42.848V68H32.3873V15.968H49.7633V30.752L46.4033 26.432C48.3873 22.656 51.1073 19.84 54.5633 17.984C58.0193 16.064 61.9233 15.104 66.2753 15.104ZM112.79 68L91.3815 15.968H110.102L127.19 59.456H117.781L135.734 15.968H153.11L131.606 68H112.79ZM183.683 68.864C177.539 68.864 172.163 67.712 167.555 65.408C163.011 63.04 159.459 59.84 156.898 55.808C154.403 51.712 153.155 47.072 153.155 41.888C153.155 36.704 154.371 32.096 156.803 28.064C159.299 23.968 162.723 20.8 167.075 18.56C171.427 16.256 176.323 15.104 181.763 15.104C186.883 15.104 191.555 16.16 195.779 18.272C200.003 20.32 203.363 23.36 205.859 27.392C208.355 31.424 209.603 36.32 209.603 42.08C209.603 42.72 209.571 43.456 209.507 44.288C209.443 45.12 209.379 45.888 209.315 46.592H168.131V36.992H199.619L192.707 39.68C192.771 37.312 192.323 35.264 191.363 33.536C190.467 31.808 189.187 30.464 187.523 29.504C185.923 28.544 184.035 28.064 181.859 28.064C179.683 28.064 177.763 28.544 176.099 29.504C174.499 30.464 173.251 31.84 172.355 33.632C171.459 35.36 171.011 37.408 171.011 39.776V42.56C171.011 45.12 171.523 47.328 172.547 49.184C173.635 51.04 175.171 52.48 177.155 53.504C179.139 54.464 181.507 54.944 184.259 54.944C186.819 54.944 188.995 54.592 190.787 53.888C192.643 53.12 194.467 51.968 196.259 50.432L205.859 60.416C203.363 63.168 200.291 65.28 196.643 66.752C192.995 68.16 188.675 68.864 183.683 68.864ZM236.924 68.864C232.508 68.864 228.188 68.352 223.964 67.328C219.804 66.304 216.444 65.024 213.884 63.488L219.356 51.008C221.788 52.48 224.636 53.664 227.9 54.56C231.164 55.392 234.364 55.808 237.5 55.808C240.572 55.808 242.684 55.488 243.836 54.848C245.052 54.208 245.66 53.344 245.66 52.256C245.66 51.232 245.084 50.496 243.932 50.048C242.844 49.536 241.372 49.152 239.516 48.896C237.724 48.64 235.74 48.352 233.564 48.032C231.388 47.712 229.18 47.296 226.94 46.784C224.764 46.208 222.748 45.376 220.892 44.288C219.1 43.136 217.66 41.6 216.572 39.68C215.484 37.76 214.94 35.328 214.94 32.384C214.94 29.056 215.9 26.112 217.82 23.552C219.804 20.928 222.684 18.88 226.46 17.408C230.236 15.872 234.844 15.104 240.284 15.104C243.932 15.104 247.612 15.488 251.324 16.256C255.1 16.96 258.268 18.048 260.828 19.52L255.356 31.904C252.796 30.432 250.236 29.44 247.676 28.928C245.116 28.352 242.684 28.064 240.38 28.064C237.308 28.064 235.132 28.416 233.852 29.12C232.636 29.824 232.028 30.688 232.028 31.712C232.028 32.736 232.572 33.536 233.66 34.112C234.748 34.624 236.188 35.04 237.98 35.36C239.836 35.616 241.852 35.904 244.028 36.224C246.204 36.48 248.38 36.896 250.556 37.472C252.796 38.048 254.812 38.912 256.604 40.064C258.46 41.152 259.932 42.656 261.02 44.576C262.108 46.432 262.652 48.832 262.652 51.776C262.652 54.976 261.66 57.856 259.676 60.416C257.756 62.976 254.876 65.024 251.036 66.56C247.26 68.096 242.556 68.864 236.924 68.864ZM293.744 68.864C287.088 68.864 281.904 67.232 278.192 63.968C274.48 60.64 272.624 55.648 272.624 48.992V4.352H290.864V48.8C290.864 50.656 291.376 52.128 292.4 53.216C293.424 54.24 294.736 54.752 296.336 54.752C298.512 54.752 300.368 54.208 301.904 53.12L306.416 65.888C304.88 66.912 302.992 67.648 300.752 68.096C298.512 68.608 296.176 68.864 293.744 68.864ZM265.04 31.52V17.888H302.768V31.52H265.04ZM345.226 68V58.304L343.978 55.904V38.048C343.978 35.168 343.082 32.96 341.29 31.424C339.562 29.824 336.778 29.024 332.938 29.024C330.442 29.024 327.914 29.44 325.354 30.272C322.794 31.04 320.618 32.128 318.826 33.536L312.682 21.152C315.626 19.232 319.146 17.76 323.242 16.736C327.402 15.648 331.53 15.104 335.626 15.104C344.074 15.104 350.602 17.056 355.21 20.96C359.882 24.8 362.218 30.848 362.218 39.104V68H345.226ZM329.866 68.864C325.706 68.864 322.186 68.16 319.306 66.752C316.426 65.344 314.218 63.424 312.682 60.992C311.21 58.56 310.474 55.84 310.474 52.832C310.474 49.632 311.274 46.88 312.874 44.576C314.538 42.208 317.066 40.416 320.458 39.2C323.85 37.92 328.234 37.28 333.61 37.28H345.898V46.784H336.106C333.162 46.784 331.082 47.264 329.866 48.224C328.714 49.184 328.138 50.464 328.138 52.064C328.138 53.664 328.746 54.944 329.962 55.904C331.178 56.864 332.842 57.344 334.954 57.344C336.938 57.344 338.73 56.864 340.33 55.904C341.994 54.88 343.21 53.344 343.978 51.296L346.474 58.016C345.514 61.6 343.626 64.32 340.81 66.176C338.058 67.968 334.41 68.864 329.866 68.864Z" fill="url(#paint0_linear_1559_677)"/>
<path d="M0.72 68H-2.28V71H0.72V68ZM0.72 0.799995V-2.2H-2.28V0.799995H0.72ZM19.728 0.799995H22.728V-2.2H19.728V0.799995ZM19.728 68V71H22.728V68H19.728ZM3.72 68V0.799995H-2.28V68H3.72ZM0.72 3.8H19.728V-2.2H0.72V3.8ZM16.728 0.799995V68H22.728V0.799995H16.728ZM19.728 65H0.72V71H19.728V65ZM77.2192 17.6L75.8567 20.2727L75.8777 20.2834L75.8988 20.2938L77.2192 17.6ZM84.8993 25.088L82.2675 26.528L82.2778 26.547L82.2885 26.5658L84.8993 25.088ZM87.7793 68V71H90.7793V68H87.7793ZM69.5393 68H66.5393V71H69.5393V68ZM67.2353 33.152L64.9515 35.0974L64.9903 35.1429L65.0308 35.1868L67.2353 33.152ZM55.7153 31.904L57.0993 34.5656L57.1405 34.5442L57.1811 34.5215L55.7153 31.904ZM50.6273 68V71H53.6273V68H50.6273ZM32.3873 68H29.3873V71H32.3873V68ZM32.3873 15.968V12.968H29.3873V15.968H32.3873ZM49.7633 15.968H52.7633V12.968H49.7633V15.968ZM49.7633 30.752L47.3952 32.5938L52.7633 39.4956V30.752H49.7633ZM46.4033 26.432L43.7475 25.0366L42.8484 26.7479L44.0352 28.2738L46.4033 26.432ZM54.5633 17.984L55.9826 20.627L56.0015 20.6169L56.0202 20.6065L54.5633 17.984ZM66.2753 18.104C69.882 18.104 73.0558 18.8448 75.8567 20.2727L78.5818 14.9273C74.8547 13.0272 70.7325 12.104 66.2753 12.104V18.104ZM75.8988 20.2938C78.5704 21.6034 80.6887 23.6427 82.2675 26.528L87.531 23.648C85.3978 19.7493 82.3961 16.7966 78.5397 14.9062L75.8988 20.2938ZM82.2885 26.5658C83.8747 29.3681 84.7793 33.1946 84.7793 38.24H90.7793C90.7793 32.5334 89.7638 27.5919 87.51 23.6102L82.2885 26.5658ZM84.7793 38.24V68H90.7793V38.24H84.7793ZM87.7793 65H69.5393V71H87.7793V65ZM72.5393 68V41.216H66.5393V68H72.5393ZM72.5393 41.216C72.5393 37.2036 71.7286 33.5969 69.4397 31.1172L65.0308 35.1868C65.8139 36.0351 66.5393 37.8044 66.5393 41.216H72.5393ZM69.519 31.2066C67.3705 28.6845 64.3836 27.56 60.9953 27.56V33.56C62.9829 33.56 64.156 34.1635 64.9515 35.0974L69.519 31.2066ZM60.9953 27.56C58.587 27.56 56.3186 28.1277 54.2494 29.2865L57.1811 34.5215C58.3119 33.8883 59.5635 33.56 60.9953 33.56V27.56ZM54.3312 29.2423C52.1078 30.3985 50.4341 32.2062 49.288 34.4984L54.6545 37.1816C55.3004 35.8898 56.1227 35.0735 57.0993 34.5656L54.3312 29.2423ZM49.288 34.4984C48.1129 36.8486 47.6273 39.6918 47.6273 42.848H53.6273C53.6273 40.2442 54.0376 38.4154 54.6545 37.1816L49.288 34.4984ZM47.6273 42.848V68H53.6273V42.848H47.6273ZM50.6273 65H32.3873V71H50.6273V65ZM35.3873 68V15.968H29.3873V68H35.3873ZM32.3873 18.968H49.7633V12.968H32.3873V18.968ZM46.7633 15.968V30.752H52.7633V15.968H46.7633ZM52.1313 28.9102L48.7713 24.5902L44.0352 28.2738L47.3952 32.5938L52.1313 28.9102ZM49.059 27.8274C50.79 24.5328 53.1002 22.1749 55.9826 20.627L53.1439 15.341C49.1143 17.505 45.9845 20.7791 43.7475 25.0366L49.059 27.8274ZM56.0202 20.6065C58.9867 18.9584 62.3805 18.104 66.2753 18.104V12.104C61.466 12.104 57.0518 13.1696 53.1063 15.3615L56.0202 20.6065ZM112.79 68L110.015 69.1415L110.78 71H112.79V68ZM91.3815 15.968V12.968H86.9032L88.6071 17.1095L91.3815 15.968ZM110.102 15.968L112.894 14.8708L112.146 12.968H110.102V15.968ZM127.19 59.456V62.456H131.592L129.982 58.3589L127.19 59.456ZM117.781 59.456L115.008 58.3113L113.298 62.456H117.781V59.456ZM135.734 15.968V12.968H133.726L132.96 14.8233L135.734 15.968ZM153.11 15.968L155.882 17.1138L157.595 12.968H153.11V15.968ZM131.606 68V71H133.612L134.378 69.1459L131.606 68ZM115.564 66.8585L94.1559 14.8265L88.6071 17.1095L110.015 69.1415L115.564 66.8585ZM91.3815 18.968H110.102V12.968H91.3815V18.968ZM107.309 17.0651L124.397 60.5531L129.982 58.3589L112.894 14.8708L107.309 17.0651ZM127.19 56.456H117.781V62.456H127.19V56.456ZM120.555 60.6007L138.507 17.1127L132.96 14.8233L115.008 58.3113L120.555 60.6007ZM135.734 18.968H153.11V12.968H135.734V18.968ZM150.337 14.8221L128.833 66.8541L134.378 69.1459L155.882 17.1138L150.337 14.8221ZM131.606 65H112.79V71H131.606V65ZM167.555 65.408L166.168 68.0684L166.19 68.08L166.213 68.0913L167.555 65.408ZM156.898 55.808L154.337 57.3691L154.351 57.3927L154.366 57.416L156.898 55.808ZM156.803 28.064L154.241 26.5029L154.234 26.5145L156.803 28.064ZM167.075 18.56L168.447 21.2274L168.463 21.2195L168.478 21.2114L167.075 18.56ZM195.779 18.272L194.437 20.9553L194.453 20.9635L194.47 20.9714L195.779 18.272ZM205.859 27.392L208.409 25.8129L208.409 25.8129L205.859 27.392ZM209.507 44.288L212.498 44.5181L212.498 44.5181L209.507 44.288ZM209.315 46.592V49.592H212.054L212.302 46.8636L209.315 46.592ZM168.131 46.592H165.131V49.592H168.131V46.592ZM168.131 36.992V33.992H165.131V36.992H168.131ZM199.619 36.992L200.706 39.788L199.619 33.992V36.992ZM192.707 39.68L189.708 39.5989L189.586 44.1125L193.794 42.476L192.707 39.68ZM191.363 33.536L188.699 34.9169L188.719 34.9552L188.74 34.9929L191.363 33.536ZM187.523 29.504L185.979 32.0765L186.001 32.0897L186.023 32.1026L187.523 29.504ZM176.099 29.504L174.599 26.9054L174.577 26.9183L174.555 26.9315L176.099 29.504ZM172.355 33.632L175.018 35.013L175.028 34.9934L175.038 34.9736L172.355 33.632ZM172.547 49.184L169.92 50.6332L169.939 50.6674L169.958 50.7012L172.547 49.184ZM177.155 53.504L175.779 56.1699L175.813 56.1876L175.848 56.2045L177.155 53.504ZM190.787 53.888L191.883 56.6803L191.909 56.6704L191.934 56.66L190.787 53.888ZM196.259 50.432L198.421 48.3527L196.457 46.3104L194.306 48.1542L196.259 50.432ZM205.859 60.416L208.081 62.4314L209.963 60.3562L208.021 58.3367L205.859 60.416ZM196.643 66.752L197.723 69.5508L197.744 69.5426L197.765 69.5341L196.643 66.752ZM183.683 65.864C177.915 65.864 173.015 64.784 168.896 62.7247L166.213 68.0913C171.31 70.64 177.162 71.864 183.683 71.864V65.864ZM168.941 62.7476C164.83 60.6051 161.688 57.754 159.431 54.2L154.366 57.416C157.229 61.9259 161.191 65.4749 166.168 68.0684L168.941 62.7476ZM159.46 54.2469C157.274 50.6591 156.155 46.5674 156.155 41.888H150.155C150.155 47.5766 151.531 52.7649 154.337 57.3691L159.46 54.2469ZM156.155 41.888C156.155 37.1933 157.249 33.1315 159.371 29.6135L154.234 26.5145C151.492 31.0605 150.155 36.2147 150.155 41.888H156.155ZM159.364 29.6251C161.567 26.0102 164.575 23.2204 168.447 21.2274L165.702 15.8926C160.87 18.3796 157.03 21.9258 154.241 26.5029L159.364 29.6251ZM168.478 21.2114C172.354 19.1595 176.76 18.104 181.763 18.104V12.104C175.885 12.104 170.499 13.3524 165.671 15.9086L168.478 21.2114ZM181.763 18.104C186.457 18.104 190.664 19.0687 194.437 20.9553L197.12 15.5887C192.445 13.2513 187.308 12.104 181.763 12.104V18.104ZM194.47 20.9714C198.176 22.7686 201.108 25.4175 203.308 28.9711L208.409 25.8129C205.617 21.3025 201.829 17.8714 197.087 15.5726L194.47 20.9714ZM203.308 28.9711C205.453 32.436 206.603 36.7577 206.603 42.08H212.603C212.603 35.8823 211.256 30.412 208.409 25.8129L203.308 28.9711ZM206.603 42.08C206.603 42.6243 206.575 43.2809 206.515 44.0579L212.498 44.5181C212.566 43.6311 212.603 42.8157 212.603 42.08H206.603ZM206.515 44.0579C206.452 44.8785 206.389 45.6324 206.327 46.3204L212.302 46.8636C212.368 46.1436 212.433 45.3615 212.498 44.5181L206.515 44.0579ZM209.315 43.592H168.131V49.592H209.315V43.592ZM171.131 46.592V36.992H165.131V46.592H171.131ZM168.131 39.992H199.619V33.992H168.131V39.992ZM198.531 34.196L191.619 36.884L193.794 42.476L200.706 39.788L198.531 34.196ZM195.705 39.7611C195.781 36.9629 195.253 34.3622 193.985 32.0791L188.74 34.9929C189.392 36.1658 189.76 37.6611 189.708 39.5989L195.705 39.7611ZM194.026 32.155C192.87 29.9255 191.189 28.1558 189.022 26.9054L186.023 32.1026C187.184 32.7722 188.063 33.6905 188.699 34.9169L194.026 32.155ZM189.066 26.9315C186.927 25.6481 184.487 25.064 181.859 25.064V31.064C183.582 31.064 184.918 31.4399 185.979 32.0765L189.066 26.9315ZM181.859 25.064C179.227 25.064 176.777 25.649 174.599 26.9054L177.598 32.1026C178.748 31.439 180.138 31.064 181.859 31.064V25.064ZM174.555 26.9315C172.429 28.2069 170.803 30.0273 169.671 32.2904L175.038 34.9736C175.698 33.6527 176.568 32.7211 177.642 32.0765L174.555 26.9315ZM169.691 32.251C168.531 34.4885 168.011 37.0302 168.011 39.776H174.011C174.011 37.7858 174.386 36.2315 175.018 35.013L169.691 32.251ZM168.011 39.776V42.56H174.011V39.776H168.011ZM168.011 42.56C168.011 45.5221 168.605 48.25 169.92 50.6332L175.173 47.7348C174.44 46.406 174.011 44.7179 174.011 42.56H168.011ZM169.958 50.7012C171.345 53.0662 173.31 54.8958 175.779 56.1699L178.53 50.8381C177.031 50.0642 175.924 49.0138 175.135 47.6668L169.958 50.7012ZM175.848 56.2045C178.328 57.4044 181.164 57.944 184.259 57.944V51.944C181.849 51.944 179.949 51.5236 178.461 50.8035L175.848 56.2045ZM184.259 57.944C187.077 57.944 189.648 57.5586 191.883 56.6803L189.69 51.0957C188.341 51.6254 186.56 51.944 184.259 51.944V57.944ZM191.934 56.66C194.129 55.7518 196.219 54.4168 198.211 52.7098L194.306 48.1542C192.714 49.5192 191.156 50.4882 189.639 51.116L191.934 56.66ZM194.096 52.5113L203.696 62.4953L208.021 58.3367L198.421 48.3527L194.096 52.5113ZM203.636 58.4006C201.462 60.7977 198.774 62.6571 195.52 63.9699L197.765 69.5341C201.807 67.9029 205.263 65.5383 208.081 62.4314L203.636 58.4006ZM195.562 63.9532C192.34 65.1971 188.403 65.864 183.683 65.864V71.864C188.946 71.864 193.649 71.1229 197.723 69.5508L195.562 63.9532ZM223.964 67.328L223.247 70.2411L223.257 70.2436L223.964 67.328ZM213.884 63.488L211.137 62.2833L210.076 64.7018L212.341 66.0605L213.884 63.488ZM219.356 51.008L220.91 48.4415L217.983 46.6699L216.609 49.8033L219.356 51.008ZM227.9 54.56L227.106 57.453L227.133 57.4603L227.159 57.467L227.9 54.56ZM243.836 54.848L242.439 52.1932L242.409 52.209L242.379 52.2255L243.836 54.848ZM243.932 50.048L242.655 52.7625L242.748 52.8065L242.845 52.844L243.932 50.048ZM239.516 48.896L239.092 51.8658L239.099 51.8669L239.106 51.8679L239.516 48.896ZM233.564 48.032L233.128 51.0001L233.128 51.0001L233.564 48.032ZM226.94 46.784L226.173 49.6841L226.222 49.6972L226.272 49.7086L226.94 46.784ZM220.892 44.288L219.27 46.8115L219.322 46.8449L219.375 46.8761L220.892 44.288ZM216.572 39.68L219.182 38.201L219.182 38.201L216.572 39.68ZM217.82 23.552L215.427 21.7427L215.42 21.752L217.82 23.552ZM226.46 17.408L227.55 20.2031L227.57 20.1952L227.591 20.1869L226.46 17.408ZM251.324 16.256L250.716 19.1938L250.745 19.1998L250.774 19.2052L251.324 16.256ZM260.828 19.52L263.572 20.7325L264.663 18.2643L262.324 16.9193L260.828 19.52ZM255.356 31.904L253.861 34.5047L256.752 36.1673L258.1 33.1165L255.356 31.904ZM247.676 28.928L247.018 31.8548L247.053 31.8627L247.088 31.8697L247.676 28.928ZM233.852 29.12L232.406 26.4913L232.378 26.5072L232.349 26.5237L233.852 29.12ZM233.66 34.112L232.257 36.7634L232.319 36.7964L232.383 36.8265L233.66 34.112ZM237.98 35.36L237.453 38.3133L237.511 38.3237L237.57 38.3319L237.98 35.36ZM244.028 36.224L243.592 39.1921L243.635 39.1984L243.678 39.2034L244.028 36.224ZM250.556 37.472L249.789 40.3721L249.799 40.3748L249.809 40.3775L250.556 37.472ZM256.604 40.064L254.982 42.5875L255.034 42.6209L255.087 42.6521L256.604 40.064ZM261.02 44.576L258.41 46.055L258.421 46.0742L258.432 46.0932L261.02 44.576ZM259.676 60.416L257.305 58.5783L257.29 58.597L257.276 58.616L259.676 60.416ZM251.036 66.56L249.922 63.7746L249.914 63.7778L249.906 63.7811L251.036 66.56ZM236.924 65.864C232.743 65.864 228.66 65.3795 224.671 64.4124L223.257 70.2436C227.717 71.3245 232.274 71.864 236.924 71.864V65.864ZM224.681 64.415C220.697 63.4342 217.646 62.2464 215.428 60.9155L212.341 66.0605C215.243 67.8016 218.911 69.1738 223.247 70.241L224.681 64.415ZM216.632 64.6927L222.104 52.2127L216.609 49.8033L211.137 62.2833L216.632 64.6927ZM217.803 53.5745C220.512 55.214 223.624 56.4972 227.106 57.453L228.694 51.667C225.648 50.8308 223.065 49.746 220.91 48.4415L217.803 53.5745ZM227.159 57.467C230.648 58.3562 234.097 58.808 237.5 58.808V52.808C234.632 52.808 231.681 52.4278 228.641 51.653L227.159 57.467ZM237.5 58.808C239.128 58.808 240.584 58.7241 241.838 58.5341C243.056 58.3496 244.271 58.0384 245.293 57.4705L242.379 52.2255C242.25 52.2976 241.833 52.4664 240.939 52.6019C240.08 52.7319 238.945 52.808 237.5 52.808V58.808ZM245.233 57.5028C247.129 56.5051 248.66 54.7659 248.66 52.256H242.66C242.66 52.245 242.662 52.2007 242.682 52.1378C242.702 52.0742 242.729 52.024 242.751 51.9935C242.79 51.9378 242.749 52.0303 242.439 52.1932L245.233 57.5028ZM248.66 52.256C248.66 51.1419 248.332 50.0341 247.591 49.0871C246.88 48.1787 245.941 47.6101 245.02 47.252L242.845 52.844C243.076 52.9339 243.001 52.9573 242.866 52.7849C242.797 52.697 242.739 52.5896 242.701 52.4751C242.665 52.3638 242.66 52.2836 242.66 52.256H248.66ZM245.21 47.3335C243.739 46.6413 241.935 46.2012 239.926 45.9241L239.106 51.8679C240.81 52.1028 241.95 52.4307 242.655 52.7625L245.21 47.3335ZM239.941 45.9261C238.153 45.6708 236.173 45.3834 234.001 45.0639L233.128 51.0001C235.307 51.3206 237.295 51.6092 239.092 51.8658L239.941 45.9261ZM234.001 45.0639C231.906 44.7559 229.775 44.3547 227.609 43.8594L226.272 49.7086C228.585 50.2373 230.871 50.6681 233.128 51.0001L234.001 45.0639ZM227.708 43.8839C225.783 43.3742 224.02 42.6442 222.409 41.6999L219.375 46.8761C221.476 48.1078 223.746 49.0418 226.173 49.6841L227.708 43.8839ZM222.515 41.7645C221.147 40.885 220.039 39.7136 219.182 38.201L213.962 41.159C215.281 43.4864 217.054 45.387 219.27 46.8115L222.515 41.7645ZM219.182 38.201C218.421 36.858 217.94 34.9767 217.94 32.384H211.94C211.94 35.6793 212.547 38.662 213.962 41.159L219.182 38.201ZM217.94 32.384C217.94 29.6773 218.706 27.3709 220.22 25.352L215.42 21.752C213.094 24.8531 211.94 28.4347 211.94 32.384H217.94ZM220.213 25.3613C221.792 23.2727 224.171 21.5202 227.55 20.2031L225.371 14.6129C221.197 16.2398 217.816 18.5833 215.427 21.7427L220.213 25.3613ZM227.591 20.1869C230.909 18.8369 235.109 18.104 240.284 18.104V12.104C234.579 12.104 229.563 12.9071 225.33 14.6291L227.591 20.1869ZM240.284 18.104C243.72 18.104 247.197 18.4655 250.716 19.1938L251.932 13.3182C248.028 12.5105 244.144 12.104 240.284 12.104V18.104ZM250.774 19.2052C254.312 19.8648 257.139 20.8594 259.333 22.1207L262.324 16.9193C259.397 15.2366 255.888 14.0552 251.874 13.3068L250.774 19.2052ZM258.084 18.3075L252.612 30.6915L258.1 33.1165L263.572 20.7325L258.084 18.3075ZM256.852 29.3033C254.046 27.6902 251.182 26.5698 248.265 25.9863L247.088 31.8697C249.29 32.3102 251.546 33.1738 253.861 34.5047L256.852 29.3033ZM248.335 26.0012C245.588 25.3831 242.934 25.064 240.38 25.064V31.064C242.435 31.064 244.645 31.3209 247.018 31.8548L248.335 26.0012ZM240.38 25.064C237.245 25.064 234.4 25.3949 232.406 26.4913L235.298 31.7486C235.864 31.4371 237.372 31.064 240.38 31.064V25.064ZM232.349 26.5237C230.595 27.5394 229.028 29.2341 229.028 31.712H235.028C235.028 31.7579 235.021 31.8228 234.998 31.8936C234.975 31.9635 234.948 32.0075 234.938 32.0225C234.923 32.0427 235.005 31.919 235.355 31.7163L232.349 26.5237ZM229.028 31.712C229.028 34.0931 230.425 35.7936 232.257 36.7634L235.064 31.4606C234.837 31.3407 234.849 31.2932 234.917 31.3931C234.951 31.4434 234.984 31.5086 235.005 31.5806C235.026 31.6511 235.028 31.6996 235.028 31.712H229.028ZM232.383 36.8265C233.798 37.4924 235.52 37.9681 237.453 38.3133L238.508 32.4067C236.857 32.1119 235.699 31.7556 234.938 31.3975L232.383 36.8265ZM237.57 38.3319C239.416 38.5865 241.423 38.8732 243.592 39.1921L244.465 33.2559C242.281 32.9348 240.256 32.6455 238.39 32.3881L237.57 38.3319ZM243.678 39.2034C245.709 39.4424 247.746 39.8314 249.789 40.3721L251.324 34.5719C249.015 33.9606 246.699 33.5176 244.379 33.2445L243.678 39.2034ZM249.809 40.3775C251.765 40.8805 253.482 41.623 254.982 42.5875L258.227 37.5405C256.143 36.201 253.827 35.2155 251.303 34.5665L249.809 40.3775ZM255.087 42.6521C256.475 43.4659 257.576 44.5821 258.41 46.055L263.63 43.097C262.289 40.7299 260.445 38.8381 258.121 37.4759L255.087 42.6521ZM258.432 46.0932C259.169 47.3499 259.652 49.1769 259.652 51.776H265.652C265.652 48.4871 265.048 45.5141 263.608 43.0588L258.432 46.0932ZM259.652 51.776C259.652 54.302 258.887 56.5373 257.305 58.5783L262.047 62.2537C264.434 59.1747 265.652 55.65 265.652 51.776H259.652ZM257.276 58.616C255.77 60.6246 253.398 62.3842 249.922 63.7746L252.15 69.3454C256.355 67.6638 259.743 65.3274 262.076 62.216L257.276 58.616ZM249.906 63.7811C246.598 65.1268 242.307 65.864 236.924 65.864V71.864C242.806 71.864 247.923 71.0652 252.167 69.3389L249.906 63.7811ZM278.192 63.968L276.19 66.2017L276.2 66.2114L276.211 66.2209L278.192 63.968ZM272.624 4.352V1.352H269.624V4.352H272.624ZM290.864 4.352H293.864V1.352H290.864V4.352ZM292.4 53.216L290.216 55.2721L290.247 55.3052L290.279 55.3373L292.4 53.216ZM301.904 53.12L304.733 52.1204L303.41 48.3771L300.17 50.6719L301.904 53.12ZM306.416 65.888L308.08 68.3842L310.023 67.0893L309.245 64.8884L306.416 65.888ZM300.752 68.096L300.164 65.1543L300.124 65.1623L300.084 65.1714L300.752 68.096ZM265.04 31.52H262.04V34.52H265.04V31.52ZM265.04 17.888V14.888H262.04V17.888H265.04ZM302.768 17.888H305.768V14.888H302.768V17.888ZM302.768 31.52V34.52H305.768V31.52H302.768ZM293.744 65.864C287.562 65.864 283.172 64.3522 280.173 61.7151L276.211 66.2209C280.636 70.1118 286.614 71.864 293.744 71.864V65.864ZM280.195 61.7343C277.311 59.1489 275.624 55.0957 275.624 48.992H269.624C269.624 56.2003 271.649 62.1311 276.19 66.2017L280.195 61.7343ZM275.624 48.992V4.352H269.624V48.992H275.624ZM272.624 7.352H290.864V1.352H272.624V7.352ZM287.864 4.352V48.8H293.864V4.352H287.864ZM287.864 48.8C287.864 51.2261 288.548 53.5007 290.216 55.2721L294.585 51.1599C294.204 50.7553 293.864 50.0859 293.864 48.8H287.864ZM290.279 55.3373C291.927 56.9855 294.032 57.752 296.336 57.752V51.752C295.44 51.752 294.921 51.4945 294.522 51.0947L290.279 55.3373ZM296.336 57.752C299.033 57.752 301.519 57.069 303.638 55.5681L300.17 50.6719C299.217 51.347 297.991 51.752 296.336 51.752V57.752ZM299.076 54.1196L303.588 66.8876L309.245 64.8884L304.733 52.1204L299.076 54.1196ZM304.752 63.3918C303.61 64.1535 302.108 64.7654 300.164 65.1543L301.341 71.0377C303.876 70.5306 306.151 69.6705 308.08 68.3842L304.752 63.3918ZM300.084 65.1714C298.075 65.6305 295.964 65.864 293.744 65.864V71.864C296.388 71.864 298.949 71.5855 301.421 71.0206L300.084 65.1714ZM268.04 31.52V17.888H262.04V31.52H268.04ZM265.04 20.888H302.768V14.888H265.04V20.888ZM299.768 17.888V31.52H305.768V17.888H299.768ZM302.768 28.52H265.04V34.52H302.768V28.52ZM345.226 68H342.226V71H345.226V68ZM345.226 58.304H348.226V57.5706L347.887 56.9199L345.226 58.304ZM343.978 55.904H340.978V56.6374L341.316 57.2881L343.978 55.904ZM341.29 31.424L339.252 33.6253L339.294 33.6643L339.337 33.7018L341.29 31.424ZM325.354 30.272L326.216 33.1455L326.249 33.1357L326.281 33.1251L325.354 30.272ZM318.826 33.536L316.138 34.8693L317.778 38.1744L320.679 35.895L318.826 33.536ZM312.682 21.152L311.043 18.6392L308.809 20.0961L309.994 22.4853L312.682 21.152ZM323.242 16.736L323.969 19.6464L323.985 19.6425L324.001 19.6384L323.242 16.736ZM355.21 20.96L353.271 23.249L353.288 23.2634L353.305 23.2776L355.21 20.96ZM362.218 68V71H365.218V68H362.218ZM319.306 66.752L320.623 64.0568L319.306 66.752ZM312.682 60.992L310.115 62.5454L310.13 62.5698L310.145 62.594L312.682 60.992ZM312.874 44.576L310.419 42.8512L310.414 42.858L310.41 42.8648L312.874 44.576ZM320.458 39.2L321.47 42.024L321.494 42.0156L321.517 42.0068L320.458 39.2ZM345.898 37.28H348.898V34.28H345.898V37.28ZM345.898 46.784V49.784H348.898V46.784H345.898ZM329.866 48.224L328.007 45.8693L327.976 45.8939L327.945 45.9193L329.866 48.224ZM329.962 55.904L328.103 58.2586L328.103 58.2586L329.962 55.904ZM340.33 55.904L341.873 58.4765L341.888 58.4678L341.902 58.459L340.33 55.904ZM343.978 51.296L346.79 50.2514L343.991 42.7161L341.169 50.2426L343.978 51.296ZM346.474 58.016L349.372 58.7922L349.619 57.8682L349.286 56.9714L346.474 58.016ZM340.81 66.176L342.447 68.69L342.454 68.6855L342.461 68.6809L340.81 66.176ZM348.226 68V58.304H342.226V68H348.226ZM347.887 56.9199L346.639 54.5199L341.316 57.2881L342.564 59.6881L347.887 56.9199ZM346.978 55.904V38.048H340.978V55.904H346.978ZM346.978 38.048C346.978 34.5028 345.844 31.3763 343.242 29.1462L339.337 33.7018C340.32 34.5437 340.978 35.8332 340.978 38.048H346.978ZM343.328 29.2227C340.786 26.8689 337.084 26.024 332.938 26.024V32.024C336.472 32.024 338.338 32.7791 339.252 33.6253L343.328 29.2227ZM332.938 26.024C330.103 26.024 327.262 26.4972 324.426 27.4189L326.281 33.1251C328.565 32.3828 330.78 32.024 332.938 32.024V26.024ZM324.492 27.3985C321.633 28.2561 319.106 29.5006 316.972 31.177L320.679 35.895C322.13 34.7554 323.954 33.8239 326.216 33.1455L324.492 27.3985ZM321.513 32.2027L315.369 19.8187L309.994 22.4853L316.138 34.8693L321.513 32.2027ZM314.321 23.6648C316.935 21.9596 320.134 20.6053 323.969 19.6464L322.514 13.8256C318.158 14.9147 314.316 16.5044 311.043 18.6392L314.321 23.6648ZM324.001 19.6384C327.925 18.612 331.798 18.104 335.626 18.104V12.104C331.261 12.104 326.878 12.684 322.483 13.8336L324.001 19.6384ZM335.626 18.104C343.644 18.104 349.386 19.9577 353.271 23.249L357.149 18.671C351.818 14.1543 344.503 12.104 335.626 12.104V18.104ZM353.305 23.2776C357.054 26.3591 359.218 31.3987 359.218 39.104H365.218C365.218 30.2973 362.709 23.2409 357.115 18.6424L353.305 23.2776ZM359.218 39.104V68H365.218V39.104H359.218ZM362.218 65H345.226V71H362.218V65ZM329.866 65.864C326.031 65.864 322.99 65.2137 320.623 64.0568L317.988 69.4472C321.382 71.1063 325.38 71.864 329.866 71.864V65.864ZM320.623 64.0568C318.184 62.8644 316.424 61.2992 315.218 59.39L310.145 62.594C312.012 65.5488 314.667 67.8236 317.988 69.4472L320.623 64.0568ZM315.248 59.4386C314.077 57.5027 313.474 55.3255 313.474 52.832H307.474C307.474 56.3545 308.343 59.6173 310.115 62.5454L315.248 59.4386ZM313.474 52.832C313.474 50.1545 314.134 48.0202 315.338 46.2872L310.41 42.8648C308.413 45.7398 307.474 49.1095 307.474 52.832H313.474ZM315.328 46.3008C316.558 44.5515 318.517 43.0828 321.47 42.024L319.445 36.376C315.615 37.7492 312.518 39.8645 310.419 42.8512L315.328 46.3008ZM321.517 42.0068C324.449 40.9005 328.437 40.28 333.61 40.28V34.28C328.03 34.28 323.251 34.9395 319.399 36.3932L321.517 42.0068ZM333.61 40.28H345.898V34.28H333.61V40.28ZM342.898 37.28V46.784H348.898V37.28H342.898ZM345.898 43.784H336.106V49.784H345.898V43.784ZM336.106 43.784C333.011 43.784 330.053 44.2538 328.007 45.8693L331.725 50.5786C332.11 50.2742 333.312 49.784 336.106 49.784V43.784ZM327.945 45.9193C326.059 47.4915 325.138 49.6418 325.138 52.064H331.138C331.138 51.2862 331.369 50.8765 331.786 50.5287L327.945 45.9193ZM325.138 52.064C325.138 54.5472 326.139 56.7084 328.103 58.2586L331.821 53.5494C331.352 53.1796 331.138 52.7808 331.138 52.064H325.138ZM328.103 58.2586C330.012 59.7657 332.41 60.344 334.954 60.344V54.344C333.273 54.344 332.344 53.9623 331.821 53.5494L328.103 58.2586ZM334.954 60.344C337.446 60.344 339.777 59.7341 341.873 58.4765L338.786 53.3315C337.682 53.9939 336.43 54.344 334.954 54.344V60.344ZM341.902 58.459C344.201 57.0441 345.814 54.9427 346.787 52.3494L341.169 50.2426C340.605 51.7453 339.786 52.7159 338.757 53.349L341.902 58.459ZM341.165 52.3406L343.661 59.0606L349.286 56.9714L346.79 50.2514L341.165 52.3406ZM343.576 57.2398C342.785 60.191 341.298 62.2609 339.159 63.6711L342.461 68.6809C345.953 66.3791 348.242 63.009 349.372 58.7922L343.576 57.2398ZM339.173 63.662C337.061 65.0369 334.044 65.864 329.866 65.864V71.864C334.776 71.864 339.054 70.8991 342.447 68.69L339.173 63.662Z" fill="white"/>
<defs>
<linearGradient id="paint0_linear_1559_677" x1="181" y1="-25" x2="181" y2="92" gradientUnits="userSpaceOnUse">
<stop offset="0.338542" stop-color="#B0590C"/>
<stop offset="0.9998" stop-color="#FAF11B"/>
<stop offset="0.9999" stop-color="#B0590C" stop-opacity="0.291667"/>
<stop offset="1" stop-color="#B0590C" stop-opacity="0"/>
</linearGradient>
</defs>
</svg>
